<svg width="20" height="20" viewBox="0 0 20 20" fill="none" xmlns="http://www.w3.org/2000/svg">
<g clip-path="url(#clip0)">
<path d="M15.04 14.8233C14.8837 14.6671 14.6718 14.5793 14.4508 14.5793C14.2299 14.5793 14.0179 14.6671 13.8617 14.8233L10.8333 17.8492V0.833333C10.8333 0.61232 10.7455 0.400358 10.5893 0.244078C10.433 0.0877974 10.221 0 10 0V0C9.77899 0 9.56703 0.0877974 9.41075 0.244078C9.25447 0.400358 9.16667 0.61232 9.16667 0.833333V17.84L6.15083 14.8233C6.07481 14.7406 5.98286 14.6741 5.88048 14.6279C5.77811 14.5816 5.66745 14.5565 5.55513 14.5541C5.44282 14.5517 5.33117 14.572 5.22692 14.6139C5.12266 14.6557 5.02794 14.7182 4.94844 14.7976C4.86895 14.877 4.80633 14.9716 4.76434 15.0758C4.72235 15.18 4.70187 15.2916 4.70412 15.4039C4.70636 15.5162 4.7313 15.6269 4.77742 15.7294C4.82354 15.8318 4.8899 15.9239 4.9725 16L8.23833 19.2658C8.47049 19.498 8.7461 19.6822 9.04944 19.8079C9.35279 19.9335 9.67791 19.9982 10.0063 19.9982C10.3346 19.9982 10.6597 19.9335 10.9631 19.8079C11.2664 19.6822 11.542 19.498 11.7742 19.2658L15.04 16C15.1957 15.8438 15.2832 15.6322 15.2832 15.4117C15.2832 15.1911 15.1957 14.9795 15.04 14.8233Z" fill="black"/>
</g>
<defs>
<clipPath id="clip0">
<rect width="20" height="20" fill="white"/>
</clipPath>
</defs>
</svg>
