<svg version="1.1" id="Capa_1" xmlns="http://www.w3.org/2000/svg" xmlns:xlink="http://www.w3.org/1999/xlink" x="0px" y="0px"
        viewBox="0 0 512 512" style="enable-background:new 0 0 512 512;" xml:space="preserve">

<!--    facebook-->
    <symbol id="facebook" viewBox="0 0 512 512">
        <path class="st0" d="M512,256C512,114.6,397.4,0,256,0S0,114.6,0,256s114.6,256,256,256c1.5,0,3,0,4.5-0.1V312.7h-55v-64.1h55v-47.2
        c0-54.7,33.4-84.5,82.2-84.5c23.4,0,43.5,1.7,49.3,2.5v57.2h-33.6c-26.5,0-31.7,12.6-31.7,31.1v40.8h63.5l-8.3,64.1h-55.2v189.5
        C433.7,471.4,512,372.9,512,256z"/>
    </symbol>

<!--    shipped icon-->
    <symbol viewBox="0 0 512 512" id="shipped"><g><g><path d="M476.158,231.363l-13.259-53.035c3.625-0.77,6.345-3.986,6.345-7.839v-8.551c0-18.566-15.105-33.67-33.67-33.67h-60.392 V110.63c0-9.136-7.432-16.568-16.568-16.568H50.772c-9.136,0-16.568,7.432-16.568,16.568V256c0,4.427,3.589,8.017,8.017,8.017 c4.427,0,8.017-3.589,8.017-8.017V110.63c0-0.295,0.239-0.534,0.534-0.534h307.841c0.295,0,0.534,0.239,0.534,0.534v145.372 c0,4.427,3.589,8.017,8.017,8.017c4.427,0,8.017-3.589,8.017-8.017v-9.088h94.569c0.008,0,0.014,0.002,0.021,0.002 c0.008,0,0.015-0.001,0.022-0.001c11.637,0.008,21.518,7.646,24.912,18.171h-24.928c-4.427,0-8.017,3.589-8.017,8.017v17.102 c0,13.851,11.268,25.119,25.119,25.119h9.086v35.273h-20.962c-6.886-19.883-25.787-34.205-47.982-34.205 s-41.097,14.322-47.982,34.205h-3.86v-60.393c0-4.427-3.589-8.017-8.017-8.017c-4.427,0-8.017,3.589-8.017,8.017v60.391H192.817 c-6.886-19.883-25.787-34.205-47.982-34.205s-41.097,14.322-47.982,34.205H50.772c-0.295,0-0.534-0.239-0.534-0.534v-17.637 h34.739c4.427,0,8.017-3.589,8.017-8.017s-3.589-8.017-8.017-8.017H8.017c-4.427,0-8.017,3.589-8.017,8.017 s3.589,8.017,8.017,8.017h26.188v17.637c0,9.136,7.432,16.568,16.568,16.568h43.304c-0.002,0.178-0.014,0.355-0.014,0.534 c0,27.996,22.777,50.772,50.772,50.772s50.772-22.776,50.772-50.772c0-0.18-0.012-0.356-0.014-0.534h180.67 c-0.002,0.178-0.014,0.355-0.014,0.534c0,27.996,22.777,50.772,50.772,50.772c27.995,0,50.772-22.776,50.772-50.772 c0-0.18-0.012-0.356-0.014-0.534h26.203c4.427,0,8.017-3.589,8.017-8.017v-85.511C512,251.989,496.423,234.448,476.158,231.363z M375.182,144.301h60.392c9.725,0,17.637,7.912,17.637,17.637v0.534h-78.029V144.301z M375.182,230.881v-52.376h71.235 l13.094,52.376H375.182z M144.835,401.904c-19.155,0-34.739-15.583-34.739-34.739s15.584-34.739,34.739-34.739 c19.155,0,34.739,15.583,34.739,34.739S163.99,401.904,144.835,401.904z M427.023,401.904c-19.155,0-34.739-15.583-34.739-34.739 s15.584-34.739,34.739-34.739c19.155,0,34.739,15.583,34.739,34.739S446.178,401.904,427.023,401.904z M495.967,299.29h-9.086 c-5.01,0-9.086-4.076-9.086-9.086v-9.086h18.171V299.29z"/></g></g><g><g><path d="M144.835,350.597c-9.136,0-16.568,7.432-16.568,16.568c0,9.136,7.432,16.568,16.568,16.568 c9.136,0,16.568-7.432,16.568-16.568C161.403,358.029,153.971,350.597,144.835,350.597z"/></g></g><g><g><path d="M427.023,350.597c-9.136,0-16.568,7.432-16.568,16.568c0,9.136,7.432,16.568,16.568,16.568 c9.136,0,16.568-7.432,16.568-16.568C443.591,358.029,436.159,350.597,427.023,350.597z"/></g></g><g><g><path d="M332.96,316.393H213.244c-4.427,0-8.017,3.589-8.017,8.017s3.589,8.017,8.017,8.017H332.96 c4.427,0,8.017-3.589,8.017-8.017S337.388,316.393,332.96,316.393z"/></g></g><g><g><path d="M127.733,282.188H25.119c-4.427,0-8.017,3.589-8.017,8.017s3.589,8.017,8.017,8.017h102.614 c4.427,0,8.017-3.589,8.017-8.017S132.16,282.188,127.733,282.188z"/></g></g><g><g><path d="M278.771,173.37c-3.13-3.13-8.207-3.13-11.337,0.001l-71.292,71.291l-37.087-37.087c-3.131-3.131-8.207-3.131-11.337,0 c-3.131,3.131-3.131,8.206,0,11.337l42.756,42.756c1.565,1.566,3.617,2.348,5.668,2.348s4.104-0.782,5.668-2.348l76.96-76.96 C281.901,181.576,281.901,176.501,278.771,173.37z"/></g></g></symbol>

<!--    cycle loading-->
    <symbol viewBox="0 0 52.642 52.642" id="cycle-loading"><g><g><path style="fill:#010002" d="M42.379,14.451c-0.645,0.521-0.746,1.465-0.226,2.109c2.942,3.647,4.497,8.058,4.496,12.754 c0,11.209-9.119,20.328-20.329,20.328S5.991,40.523,5.991,29.314c0-7.799,4.537-14.767,11.219-18.149 c2.463-1.247,4.161,0.491,3.503,3.173l-1.262,5.14c-0.198,0.804,0.294,1.616,1.099,1.814c0.12,0.029,0.241,0.043,0.359,0.043 c0.675,0,1.288-0.458,1.456-1.143l3.316-13.497c0.185-0.752-0.234-1.522-0.967-1.775L10.72,0.083 c-0.392-0.135-0.801-0.1-1.146,0.068c-0.585,0.285-0.977,1.42-0.693,2.006C9.049,2.503,9.349,2.784,9.74,2.919l6.18,2.136 c2.61,0.901,2.517,2.134,0.047,3.369c-7.725,3.865-12.975,11.9-12.975,20.89c0,12.863,10.465,23.328,23.329,23.328 c12.863,0,23.329-10.465,23.329-23.328c0-5.312-1.833-10.51-5.161-14.637C43.968,14.032,43.025,13.931,42.379,14.451z"/></g></g></symbol>
<!--    credit card icon-->
    <symbol viewBox="0 0 512 512" id="credit-card"><g><g><path d="M458.667,85.333H53.333C23.936,85.333,0,109.269,0,138.667v234.667c0,29.397,23.936,53.333,53.333,53.333h405.333 c29.397,0,53.333-23.936,53.333-53.333V138.667C512,109.269,488.064,85.333,458.667,85.333z M490.667,373.333 c0,17.643-14.357,32-32,32H53.333c-17.643,0-32-14.357-32-32V138.667c0-17.643,14.357-32,32-32h405.333c17.643,0,32,14.357,32,32 V373.333z"/></g></g><g><g><path d="M501.333,149.333H10.667C4.779,149.333,0,154.112,0,160v64c0,5.888,4.779,10.667,10.667,10.667h490.667 c5.888,0,10.667-4.779,10.667-10.667v-64C512,154.112,507.221,149.333,501.333,149.333z M490.667,213.333H21.333v-42.667h469.333 V213.333z"/></g></g><g><g><path d="M202.667,298.667h-128c-5.888,0-10.667,4.779-10.667,10.667S68.779,320,74.667,320h128 c5.888,0,10.667-4.779,10.667-10.667S208.555,298.667,202.667,298.667z"/></g></g><g><g><path d="M202.667,341.333h-128C68.779,341.333,64,346.112,64,352c0,5.888,4.779,10.667,10.667,10.667h128 c5.888,0,10.667-4.779,10.667-10.667C213.333,346.112,208.555,341.333,202.667,341.333z"/></g></g><g><g><path d="M416,277.333h-21.333c-17.643,0-32,14.357-32,32v21.333c0,17.643,14.357,32,32,32H416c17.643,0,32-14.357,32-32v-21.333 C448,291.691,433.643,277.333,416,277.333z M426.667,330.667c0,5.888-4.779,10.667-10.667,10.667h-21.333 c-5.888,0-10.667-4.779-10.667-10.667v-21.333c0-5.888,4.779-10.667,10.667-10.667H416c5.888,0,10.667,4.779,10.667,10.667 V330.667z"/></g></g></symbol>

<!--    star regular icon-->
    <symbol viewBox="0 0 21 19" id="star-r"><path fill="#C4C4C4" d="M10.5 0L12.8574 7.25532H20.4861L14.3143 11.7394L16.6717 18.9947L10.5 14.5106L4.32825 18.9947L6.68565 11.7394L0.513906 7.25532H8.1426L10.5 0Z"/></symbol>

<!--    start solid icon-->
    <symbol viewBox="0 0 21 19" id="star-s"><path fill="#FFDB5C" d="M10.5 0L12.8574 7.25532H20.4861L14.3143 11.7394L16.6717 18.9947L10.5 14.5106L4.32825 18.9947L6.68565 11.7394L0.513906 7.25532H8.1426L10.5 0Z"/></symbol>

<!--    user icon-->
    <symbol viewBox="0 0 24 24" id="user"><path d="M12,12A6,6,0,1,0,6,6,6.006,6.006,0,0,0,12,12ZM12,2A4,4,0,1,1,8,6,4,4,0,0,1,12,2Z"/><path d="M12,14a9.01,9.01,0,0,0-9,9,1,1,0,0,0,2,0,7,7,0,0,1,14,0,1,1,0,0,0,2,0A9.01,9.01,0,0,0,12,14Z"/></symbol>

<!--    shopping cart icon-->
    <symbol viewBox="0 0 24 24" id="cart"><path d="M22.713,4.077A2.993,2.993,0,0,0,20.41,3H4.242L4.2,2.649A3,3,0,0,0,1.222,0H1A1,1,0,0,0,1,2h.222a1,1,0,0,1,.993.883l1.376,11.7A5,5,0,0,0,8.557,19H19a1,1,0,0,0,0-2H8.557a3,3,0,0,1-2.82-2h11.92a5,5,0,0,0,4.921-4.113l.785-4.354A2.994,2.994,0,0,0,22.713,4.077ZM21.4,6.178l-.786,4.354A3,3,0,0,1,17.657,13H5.419L4.478,5H20.41A1,1,0,0,1,21.4,6.178Z"/><circle cx="7" cy="22" r="2"/><circle cx="17" cy="22" r="2"/></symbol>

    <symbol viewBox="0 0 512 512" id="logout"><g>
	<g>
		<path d="M505.664,243.739l-54.783-38.622c-9.926-6.997-23.645,0.128-23.645,12.26v23.622H164.196
			c-8.284,0-15.001,6.716-15.001,15.001S155.912,271,164.196,271h263.038v23.621c0,12.212,13.792,19.204,23.644,12.26l54.783-38.622
			C514.027,262.365,514.196,249.767,505.664,243.739z"/>
	</g>
</g>
        <g>
	<g>
		<path d="M430.471,352.317c-7.169-4.146-16.347-1.698-20.496,5.474c-35.236,60.916-101.103,101.811-176.372,101.811
			c-112.266,0-203.602-91.336-203.602-203.602S121.337,52.398,233.603,52.398c75.319,0,141.156,40.933,176.371,101.809
			c4.148,7.172,13.328,9.619,20.496,5.474c7.171-4.148,9.621-13.325,5.474-20.496C395.418,69.127,319.729,22.397,233.603,22.397
			C104.49,22.397,0,126.876,0,256c0,129.113,104.479,233.603,233.603,233.603c86.163,0,161.833-46.763,202.342-116.79
			C440.092,365.642,437.642,356.466,430.471,352.317z"/>
	</g>
</g>
        <g>
</g>
        <g>
</g>
        <g>
</g>
        <g>
</g>
        <g>
</g>
        <g>
</g>
        <g>
</g>
        <g>
</g>
        <g>
</g>
        <g>
</g>
        <g>
</g>
        <g>
</g>
        <g>
</g>
        <g>
</g>
        <g>
</g></symbol>

    <symbol id="close" viewBox="0 0 492 492">
        <g>
	<g>
		<path d="M300.188,246L484.14,62.04c5.06-5.064,7.852-11.82,7.86-19.024c0-7.208-2.792-13.972-7.86-19.028L468.02,7.872
			c-5.068-5.076-11.824-7.856-19.036-7.856c-7.2,0-13.956,2.78-19.024,7.856L246.008,191.82L62.048,7.872
			c-5.06-5.076-11.82-7.856-19.028-7.856c-7.2,0-13.96,2.78-19.02,7.856L7.872,23.988c-10.496,10.496-10.496,27.568,0,38.052
			L191.828,246L7.872,429.952c-5.064,5.072-7.852,11.828-7.852,19.032c0,7.204,2.788,13.96,7.852,19.028l16.124,16.116
			c5.06,5.072,11.824,7.856,19.02,7.856c7.208,0,13.968-2.784,19.028-7.856l183.96-183.952l183.952,183.952
			c5.068,5.072,11.824,7.856,19.024,7.856h0.008c7.204,0,13.96-2.784,19.028-7.856l16.12-16.116
			c5.06-5.064,7.852-11.824,7.852-19.028c0-7.204-2.792-13.96-7.852-19.028L300.188,246z"/>
	</g>
</g>
        <g>
</g>
        <g>
</g>
        <g>
</g>
        <g>
</g>
        <g>
</g>
        <g>
</g>
        <g>
</g>
        <g>
</g>
        <g>
</g>
        <g>
</g>
        <g>
</g>
        <g>
</g>
        <g>
</g>
        <g>
</g>
        <g>
</g>
    </symbol>

</svg>