<?xml version="1.0" encoding="utf-8"?>
<!-- Generator: Adobe Illustrator 25.2.1, SVG Export Plug-In . SVG Version: 6.00 Build 0)  -->
<svg version="1.1" id="Capa_1" xmlns="http://www.w3.org/2000/svg" xmlns:xlink="http://www.w3.org/1999/xlink" x="0px" y="0px"
	 viewBox="0 0 97.8 97.8" style="enable-background:new 0 0 97.8 97.8;" xml:space="preserve">
<style type="text/css">
	.st0{fill:#FFDB5C;}
</style>
<g>
	<path class="st0" d="M48.9,0C21.9,0,0,21.9,0,48.9s21.9,48.9,48.9,48.9s48.9-21.9,48.9-48.9S75.9,0,48.9,0z M54.5,65.1
		c-4.5,0-8.8-2.4-10.2-5.2c0,0-2.4,9.6-2.9,11.5c-1.8,6.6-7.1,13.2-7.6,13.7c-0.3,0.4-0.9,0.3-1-0.2c-0.1-0.8-1.5-9.1,0.1-15.9
		c0.8-3.4,5.4-22.8,5.4-22.8s-1.3-2.7-1.3-6.6c0-6.2,3.6-10.8,8.1-10.8c3.8,0,5.6,2.9,5.6,6.3c0,3.8-2.4,9.6-3.7,14.9
		c-1.1,4.4,2.2,8.1,6.6,8.1c7.9,0,13.3-10.2,13.3-22.3c0-9.2-6.2-16-17.4-16c-12.7,0-20.6,9.5-20.6,20.1c0,3.6,1.1,6.2,2.8,8.2
		c0.8,0.9,0.9,1.3,0.6,2.3c-0.2,0.8-0.7,2.6-0.9,3.4c-0.3,1.1-1.1,1.4-2.1,1c-5.8-2.4-8.6-8.8-8.6-16c0-11.9,10-26.2,29.9-26.2
		c16,0,26.5,11.6,26.5,24C77.1,52.8,68,65.1,54.5,65.1z"/>
</g>
</svg>
